<svg width="353" height="164" viewBox="0 0 353 164" fill="none" xmlns="http://www.w3.org/2000/svg">
<rect x="112" y="51" width="241" height="59" rx="29.5" fill="black"/>
<rect x="2.5" y="53.5" width="348" height="54" rx="27" stroke="black" stroke-width="5"/>
<path d="M23.5482 93C23.0202 93 22.5762 92.82 22.2162 92.46C21.8562 92.1 21.6762 91.656 21.6762 91.128V66.756C21.6762 66.204 21.8562 65.76 22.2162 65.424C22.5762 65.064 23.0202 64.884 23.5482 64.884H39.8202C40.3722 64.884 40.8162 65.052 41.1522 65.388C41.4882 65.7 41.6562 66.12 41.6562 66.648C41.6562 67.152 41.4882 67.56 41.1522 67.872C40.8162 68.184 40.3722 68.34 39.8202 68.34H25.4202V77.088H35.7522C36.3042 77.088 36.7482 77.256 37.0842 77.592C37.4202 77.904 37.5882 78.312 37.5882 78.816C37.5882 79.32 37.4202 79.74 37.0842 80.076C36.7482 80.388 36.3042 80.544 35.7522 80.544H25.4202V89.544H39.8202C40.3722 89.544 40.8162 89.7 41.1522 90.012C41.4882 90.324 41.6562 90.732 41.6562 91.236C41.6562 91.764 41.4882 92.196 41.1522 92.532C40.8162 92.844 40.3722 93 39.8202 93H23.5482ZM53.1832 92.964C52.4392 92.964 51.8632 92.568 51.4552 91.776L43.8232 75.684C43.6312 75.276 43.6072 74.88 43.7512 74.496C43.9192 74.088 44.2312 73.776 44.6872 73.56C45.0952 73.344 45.5032 73.308 45.9112 73.452C46.3432 73.596 46.6672 73.872 46.8832 74.28L54.0112 89.652H52.2832L59.3392 74.28C59.5552 73.872 59.8792 73.596 60.3112 73.452C60.7672 73.308 61.2232 73.344 61.6792 73.56C62.1112 73.752 62.3992 74.052 62.5432 74.46C62.6872 74.868 62.6632 75.276 62.4712 75.684L54.8392 91.776C54.4792 92.568 53.9272 92.964 53.1832 92.964ZM73.7507 93.144C71.9987 93.144 70.4267 92.712 69.0347 91.848C67.6427 90.96 66.5387 89.772 65.7227 88.284C64.9307 86.772 64.5347 85.068 64.5347 83.172C64.5347 81.276 64.9667 79.572 65.8307 78.06C66.7187 76.548 67.9067 75.36 69.3947 74.496C70.9067 73.608 72.5987 73.164 74.4707 73.164C76.3427 73.164 78.0227 73.608 79.5107 74.496C80.9987 75.36 82.1747 76.548 83.0387 78.06C83.9267 79.572 84.3707 81.276 84.3707 83.172H82.9667C82.9667 85.068 82.5587 86.772 81.7427 88.284C80.9507 89.772 79.8587 90.96 78.4667 91.848C77.0747 92.712 75.5027 93.144 73.7507 93.144ZM74.4707 89.904C75.6947 89.904 76.7867 89.616 77.7467 89.04C78.7067 88.44 79.4627 87.636 80.0147 86.628C80.5667 85.596 80.8427 84.444 80.8427 83.172C80.8427 81.876 80.5667 80.724 80.0147 79.716C79.4627 78.684 78.7067 77.88 77.7467 77.304C76.7867 76.704 75.6947 76.404 74.4707 76.404C73.2707 76.404 72.1787 76.704 71.1947 77.304C70.2347 77.88 69.4667 78.684 68.8907 79.716C68.3387 80.724 68.0627 81.876 68.0627 83.172C68.0627 84.444 68.3387 85.596 68.8907 86.628C69.4667 87.636 70.2347 88.44 71.1947 89.04C72.1787 89.616 73.2707 89.904 74.4707 89.904ZM82.5347 93.036C82.0067 93.036 81.5627 92.868 81.2027 92.532C80.8667 92.172 80.6987 91.728 80.6987 91.2V85.692L81.3827 81.876L84.3707 83.172V91.2C84.3707 91.728 84.1907 92.172 83.8307 92.532C83.4947 92.868 83.0627 93.036 82.5347 93.036ZM106.468 93.036C105.94 93.036 105.496 92.868 105.136 92.532C104.8 92.172 104.632 91.728 104.632 91.2V82.344C104.632 80.976 104.38 79.86 103.876 78.996C103.372 78.132 102.688 77.496 101.824 77.088C100.984 76.656 100.012 76.44 98.9077 76.44C97.8997 76.44 96.9877 76.644 96.1717 77.052C95.3557 77.46 94.7077 78.012 94.2277 78.708C93.7477 79.38 93.5077 80.16 93.5077 81.048H91.2397C91.2397 79.536 91.5997 78.192 92.3197 77.016C93.0637 75.816 94.0717 74.868 95.3437 74.172C96.6157 73.476 98.0437 73.128 99.6277 73.128C101.284 73.128 102.76 73.488 104.056 74.208C105.376 74.904 106.408 75.936 107.152 77.304C107.92 78.672 108.304 80.352 108.304 82.344V91.2C108.304 91.728 108.124 92.172 107.764 92.532C107.428 92.868 106.996 93.036 106.468 93.036ZM91.6717 93.036C91.1437 93.036 90.6997 92.868 90.3397 92.532C90.0037 92.172 89.8357 91.728 89.8357 91.2V75.144C89.8357 74.592 90.0037 74.148 90.3397 73.812C90.6997 73.476 91.1437 73.308 91.6717 73.308C92.2237 73.308 92.6677 73.476 93.0037 73.812C93.3397 74.148 93.5077 74.592 93.5077 75.144V91.2C93.5077 91.728 93.3397 92.172 93.0037 92.532C92.6677 92.868 92.2237 93.036 91.6717 93.036Z" fill="black"/>
<path d="M127.118 93C126.59 93 126.146 92.82 125.786 92.46C125.45 92.1 125.282 91.656 125.282 91.128V66.756C125.282 66.228 125.462 65.784 125.822 65.424C126.182 65.064 126.614 64.884 127.118 64.884C127.646 64.884 128.09 65.064 128.45 65.424C128.81 65.784 128.99 66.228 128.99 66.756V89.256H142.022C142.55 89.256 142.994 89.436 143.354 89.796C143.714 90.156 143.894 90.6 143.894 91.128C143.894 91.656 143.714 92.1 143.354 92.46C142.994 92.82 142.55 93 142.022 93H127.118ZM157.271 93.144C155.279 93.144 153.503 92.724 151.943 91.884C150.407 91.02 149.195 89.844 148.307 88.356C147.443 86.844 147.011 85.116 147.011 83.172C147.011 81.204 147.419 79.476 148.235 77.988C149.075 76.476 150.227 75.3 151.691 74.46C153.155 73.596 154.835 73.164 156.731 73.164C158.603 73.164 160.211 73.584 161.555 74.424C162.899 75.24 163.919 76.38 164.615 77.844C165.335 79.284 165.695 80.952 165.695 82.848C165.695 83.304 165.539 83.688 165.227 84C164.915 84.288 164.519 84.432 164.039 84.432H149.531V81.552H163.931L162.455 82.56C162.431 81.36 162.191 80.292 161.735 79.356C161.279 78.396 160.631 77.64 159.791 77.088C158.951 76.536 157.931 76.26 156.731 76.26C155.363 76.26 154.187 76.56 153.203 77.16C152.243 77.76 151.511 78.588 151.007 79.644C150.503 80.676 150.251 81.852 150.251 83.172C150.251 84.492 150.551 85.668 151.151 86.7C151.751 87.732 152.579 88.548 153.635 89.148C154.691 89.748 155.903 90.048 157.271 90.048C158.015 90.048 158.771 89.916 159.539 89.652C160.331 89.364 160.967 89.04 161.447 88.68C161.807 88.416 162.191 88.284 162.599 88.284C163.031 88.26 163.403 88.38 163.715 88.644C164.123 89.004 164.339 89.4 164.363 89.832C164.387 90.264 164.195 90.636 163.787 90.948C162.971 91.596 161.951 92.124 160.727 92.532C159.527 92.94 158.375 93.144 157.271 93.144ZM193.886 93.36C191.942 93.36 190.118 93 188.414 92.28C186.734 91.536 185.258 90.516 183.986 89.22C182.738 87.9 181.754 86.364 181.034 84.612C180.338 82.86 179.99 80.964 179.99 78.924C179.99 76.908 180.338 75.036 181.034 73.308C181.754 71.556 182.738 70.032 183.986 68.736C185.258 67.416 186.734 66.384 188.414 65.64C190.094 64.896 191.918 64.524 193.886 64.524C195.734 64.524 197.318 64.764 198.638 65.244C199.982 65.724 201.326 66.516 202.67 67.62C202.862 67.764 203.006 67.92 203.102 68.088C203.222 68.232 203.294 68.388 203.318 68.556C203.366 68.7 203.39 68.88 203.39 69.096C203.39 69.552 203.222 69.936 202.886 70.248C202.574 70.56 202.178 70.728 201.698 70.752C201.242 70.776 200.81 70.62 200.402 70.284C199.514 69.516 198.59 68.928 197.63 68.52C196.694 68.112 195.446 67.908 193.886 67.908C192.47 67.908 191.138 68.196 189.89 68.772C188.642 69.348 187.538 70.14 186.578 71.148C185.642 72.156 184.91 73.332 184.382 74.676C183.854 75.996 183.59 77.412 183.59 78.924C183.59 80.46 183.854 81.9 184.382 83.244C184.91 84.564 185.642 85.728 186.578 86.736C187.538 87.744 188.642 88.536 189.89 89.112C191.138 89.664 192.47 89.94 193.886 89.94C195.11 89.94 196.262 89.736 197.342 89.328C198.446 88.896 199.502 88.308 200.51 87.564C200.942 87.252 201.362 87.12 201.77 87.168C202.202 87.192 202.562 87.36 202.85 87.672C203.138 87.96 203.282 88.368 203.282 88.896C203.282 89.136 203.234 89.376 203.138 89.616C203.066 89.832 202.922 90.036 202.706 90.228C201.434 91.284 200.054 92.076 198.566 92.604C197.078 93.108 195.518 93.36 193.886 93.36ZM203.282 88.896L199.682 88.176V81.732H194.714C194.186 81.732 193.742 81.576 193.382 81.264C193.022 80.952 192.842 80.556 192.842 80.076C192.842 79.596 193.022 79.2 193.382 78.888C193.742 78.576 194.186 78.42 194.714 78.42H201.446C201.998 78.42 202.442 78.6 202.778 78.96C203.114 79.296 203.282 79.74 203.282 80.292V88.896ZM217.19 93.18C215.534 93.18 214.046 92.832 212.726 92.136C211.43 91.416 210.398 90.372 209.63 89.004C208.886 87.636 208.514 85.956 208.514 83.964V75.108C208.514 74.58 208.682 74.148 209.018 73.812C209.378 73.452 209.822 73.272 210.35 73.272C210.878 73.272 211.31 73.452 211.646 73.812C212.006 74.148 212.186 74.58 212.186 75.108V83.964C212.186 85.308 212.438 86.424 212.942 87.312C213.446 88.176 214.13 88.824 214.994 89.256C215.858 89.664 216.83 89.868 217.91 89.868C218.942 89.868 219.854 89.664 220.646 89.256C221.462 88.848 222.11 88.296 222.59 87.6C223.07 86.904 223.31 86.124 223.31 85.26H225.578C225.578 86.748 225.206 88.092 224.462 89.292C223.742 90.492 222.746 91.44 221.474 92.136C220.226 92.832 218.798 93.18 217.19 93.18ZM225.146 93C224.618 93 224.174 92.832 223.814 92.496C223.478 92.136 223.31 91.692 223.31 91.164V75.108C223.31 74.556 223.478 74.112 223.814 73.776C224.174 73.44 224.618 73.272 225.146 73.272C225.698 73.272 226.142 73.44 226.478 73.776C226.814 74.112 226.982 74.556 226.982 75.108V91.164C226.982 91.692 226.814 92.136 226.478 92.496C226.142 92.832 225.698 93 225.146 93ZM242.701 93.144C240.709 93.144 238.933 92.724 237.373 91.884C235.837 91.02 234.625 89.844 233.737 88.356C232.873 86.844 232.441 85.116 232.441 83.172C232.441 81.204 232.849 79.476 233.665 77.988C234.505 76.476 235.657 75.3 237.121 74.46C238.585 73.596 240.265 73.164 242.161 73.164C244.033 73.164 245.641 73.584 246.985 74.424C248.329 75.24 249.349 76.38 250.045 77.844C250.765 79.284 251.125 80.952 251.125 82.848C251.125 83.304 250.969 83.688 250.657 84C250.345 84.288 249.949 84.432 249.469 84.432H234.961V81.552H249.361L247.885 82.56C247.861 81.36 247.621 80.292 247.165 79.356C246.709 78.396 246.061 77.64 245.221 77.088C244.381 76.536 243.361 76.26 242.161 76.26C240.793 76.26 239.617 76.56 238.633 77.16C237.673 77.76 236.941 78.588 236.437 79.644C235.933 80.676 235.681 81.852 235.681 83.172C235.681 84.492 235.981 85.668 236.581 86.7C237.181 87.732 238.009 88.548 239.065 89.148C240.121 89.748 241.333 90.048 242.701 90.048C243.445 90.048 244.201 89.916 244.969 89.652C245.761 89.364 246.397 89.04 246.877 88.68C247.237 88.416 247.621 88.284 248.029 88.284C248.461 88.26 248.833 88.38 249.145 88.644C249.553 89.004 249.769 89.4 249.793 89.832C249.817 90.264 249.625 90.636 249.217 90.948C248.401 91.596 247.381 92.124 246.157 92.532C244.957 92.94 243.805 93.144 242.701 93.144ZM272.44 93.036C271.912 93.036 271.468 92.868 271.108 92.532C270.772 92.172 270.604 91.728 270.604 91.2V82.344C270.604 80.976 270.352 79.86 269.848 78.996C269.344 78.132 268.66 77.496 267.796 77.088C266.956 76.656 265.984 76.44 264.88 76.44C263.872 76.44 262.96 76.644 262.144 77.052C261.328 77.46 260.68 78.012 260.2 78.708C259.72 79.38 259.48 80.16 259.48 81.048H257.212C257.212 79.536 257.572 78.192 258.292 77.016C259.036 75.816 260.044 74.868 261.316 74.172C262.588 73.476 264.016 73.128 265.6 73.128C267.256 73.128 268.732 73.488 270.028 74.208C271.348 74.904 272.38 75.936 273.124 77.304C273.892 78.672 274.276 80.352 274.276 82.344V91.2C274.276 91.728 274.096 92.172 273.736 92.532C273.4 92.868 272.968 93.036 272.44 93.036ZM257.644 93.036C257.116 93.036 256.672 92.868 256.312 92.532C255.976 92.172 255.808 91.728 255.808 91.2V75.144C255.808 74.592 255.976 74.148 256.312 73.812C256.672 73.476 257.116 73.308 257.644 73.308C258.196 73.308 258.64 73.476 258.976 73.812C259.312 74.148 259.48 74.592 259.48 75.144V91.2C259.48 91.728 259.312 92.172 258.976 92.532C258.64 92.868 258.196 93.036 257.644 93.036ZM296.979 93.036C296.451 93.036 296.007 92.868 295.647 92.532C295.311 92.172 295.143 91.728 295.143 91.2V82.344C295.143 80.976 294.891 79.86 294.387 78.996C293.883 78.132 293.199 77.496 292.335 77.088C291.495 76.656 290.523 76.44 289.419 76.44C288.411 76.44 287.499 76.644 286.683 77.052C285.867 77.46 285.219 78.012 284.739 78.708C284.259 79.38 284.019 80.16 284.019 81.048H281.751C281.751 79.536 282.111 78.192 282.831 77.016C283.575 75.816 284.583 74.868 285.855 74.172C287.127 73.476 288.555 73.128 290.139 73.128C291.795 73.128 293.271 73.488 294.567 74.208C295.887 74.904 296.919 75.936 297.663 77.304C298.431 78.672 298.815 80.352 298.815 82.344V91.2C298.815 91.728 298.635 92.172 298.275 92.532C297.939 92.868 297.507 93.036 296.979 93.036ZM282.183 93.036C281.655 93.036 281.211 92.868 280.851 92.532C280.515 92.172 280.347 91.728 280.347 91.2V75.144C280.347 74.592 280.515 74.148 280.851 73.812C281.211 73.476 281.655 73.308 282.183 73.308C282.735 73.308 283.179 73.476 283.515 73.812C283.851 74.148 284.019 74.592 284.019 75.144V91.2C284.019 91.728 283.851 92.172 283.515 92.532C283.179 92.868 282.735 93.036 282.183 93.036ZM314.138 93.144C312.146 93.144 310.37 92.724 308.81 91.884C307.274 91.02 306.062 89.844 305.174 88.356C304.31 86.844 303.878 85.116 303.878 83.172C303.878 81.204 304.286 79.476 305.102 77.988C305.942 76.476 307.094 75.3 308.558 74.46C310.022 73.596 311.702 73.164 313.598 73.164C315.47 73.164 317.078 73.584 318.422 74.424C319.766 75.24 320.786 76.38 321.482 77.844C322.202 79.284 322.562 80.952 322.562 82.848C322.562 83.304 322.406 83.688 322.094 84C321.782 84.288 321.386 84.432 320.906 84.432H306.398V81.552H320.798L319.322 82.56C319.298 81.36 319.058 80.292 318.602 79.356C318.146 78.396 317.498 77.64 316.658 77.088C315.818 76.536 314.798 76.26 313.598 76.26C312.23 76.26 311.054 76.56 310.07 77.16C309.11 77.76 308.378 78.588 307.874 79.644C307.37 80.676 307.118 81.852 307.118 83.172C307.118 84.492 307.418 85.668 308.018 86.7C308.618 87.732 309.446 88.548 310.502 89.148C311.558 89.748 312.77 90.048 314.138 90.048C314.882 90.048 315.638 89.916 316.406 89.652C317.198 89.364 317.834 89.04 318.314 88.68C318.674 88.416 319.058 88.284 319.466 88.284C319.898 88.26 320.27 88.38 320.582 88.644C320.99 89.004 321.206 89.4 321.23 89.832C321.254 90.264 321.062 90.636 320.654 90.948C319.838 91.596 318.818 92.124 317.594 92.532C316.394 92.94 315.242 93.144 314.138 93.144ZM335.471 93.144C333.551 93.144 331.835 92.712 330.323 91.848C328.835 90.96 327.659 89.772 326.795 88.284C325.955 86.772 325.535 85.068 325.535 83.172C325.535 81.228 325.955 79.5 326.795 77.988C327.635 76.476 328.787 75.3 330.251 74.46C331.715 73.596 333.395 73.164 335.291 73.164C336.707 73.164 338.003 73.44 339.179 73.992C340.355 74.52 341.411 75.324 342.347 76.404C342.683 76.788 342.803 77.184 342.707 77.592C342.611 78 342.347 78.36 341.915 78.672C341.579 78.912 341.207 78.996 340.799 78.924C340.391 78.828 340.019 78.612 339.683 78.276C338.507 77.028 337.043 76.404 335.291 76.404C334.067 76.404 332.987 76.692 332.051 77.268C331.115 77.82 330.383 78.6 329.855 79.608C329.327 80.616 329.063 81.804 329.063 83.172C329.063 84.468 329.327 85.62 329.855 86.628C330.407 87.636 331.163 88.44 332.123 89.04C333.083 89.616 334.199 89.904 335.471 89.904C336.311 89.904 337.043 89.808 337.667 89.616C338.315 89.4 338.903 89.076 339.431 88.644C339.815 88.332 340.211 88.164 340.619 88.14C341.027 88.092 341.387 88.2 341.699 88.464C342.107 88.8 342.335 89.184 342.383 89.616C342.431 90.024 342.287 90.396 341.951 90.732C340.223 92.34 338.063 93.144 335.471 93.144Z" fill="white"/>
</svg>
